<svg id="Titre" xmlns="http://www.w3.org/2000/svg" width="64px" height="64px" viewBox="0 0 64 64">
    <title>SkyCareer</title>
    <g id="HIGHLIGHT">
        <rect x="8" y="10" width="48" height="44" rx="12" fill="#000000"/>
        <path d="M22 43c-4.7 0-8-2.3-8.2-6.1h7.1c.2 1.2 1.1 1.9 2.5 1.9 1.2 0 2-.5 2-1.4 0-1.1-1.4-1.4-3.6-1.8-3.4-.7-7.2-1.7-7.2-6.1 0-4.1 3.3-6.6 8.2-6.6 4.7 0 7.7 2.2 8 6h-6.9c-.2-1-.9-1.6-2.2-1.6-1.1 0-1.8.5-1.8 1.3 0 1 1.4 1.3 3.5 1.8 3.5.7 7.4 1.8 7.4 6.3 0 3.9-3.3 6.3-8.8 6.3z" fill="#ffffff"/>
        <path d="M43.1 43c-6.4 0-10.6-4-10.6-10.1 0-6.1 4.2-10.1 10.6-10.1 5.3 0 9.2 2.9 10 7.4h-7.2c-.5-1.3-1.5-2-2.9-2-2.1 0-3.3 1.8-3.3 4.7s1.3 4.7 3.4 4.7c1.5 0 2.5-.8 2.9-2.2h7.2c-.8 4.7-4.7 7.6-10.1 7.6z" fill="#ffffff"/>
    </g>
</svg>
